<?xml version="1.0" encoding="UTF-8"?><svg id="Capa_1" xmlns="http://www.w3.org/2000/svg" viewBox="0 0 500 500"><defs><style>.cls-1{fill:#1d1d1b;}</style></defs><path class="cls-1" d="M109.8794,308.0815l-3.1201,27.3604h-20.4004l9.1201-60.9609h19.2007c-1.6802,39.8408,11.52,55.2012,40.5605,55.2012,21.3608,0,34.0811-9.8408,37.6812-34.0811,7.6802-51.6011-95.5225-20.1602-85.4419-89.042,4.0801-29.041,24.4805-44.4014,54.2412-44.4014,19.4404,0,33.3608,8.1602,39.1206,24.9609l2.6401-22.5605h20.1606l-7.9204,52.0811h-18.7202c1.9199-36.481-13.4404-46.0811-32.8809-46.0811-16.5605,0-31.9209,6.48-35.521,30.4805-7.4399,49.9209,96.0024,17.0405,85.4424,88.5625-4.3203,30.9609-25.6807,48.2412-58.3218,48.2412-24.7202,0-39.6006-11.2803-45.8408-29.7607Z"/><path class="cls-1" d="M206.5161,335.4419l1.2002-7.9199,23.0405.4795,23.2808-155.7632-23.041.7197,1.2002-8.3999h74.8818l-1.4404,8.3999-25.9199-.7197-9.8408,64.8013h84.2422l9.6006-64.8013-26.1611.7197,1.2002-8.3999h74.8818l-1.4404,8.3999-22.7998-.7197-23.5205,155.7632,23.2803-.4795-1.2002,7.9199h-74.8818l1.2002-7.9199,26.1602.4795,12.4805-83.0415h-84.2422l-12.4795,83.0415,26.1602-.4795-1.2002,7.9199h-74.6416Z"/></svg>